<svg xmlns="http://www.w3.org/2000/svg" xmlns:xlink="http://www.w3.org/1999/xlink" viewBox="0 0 300.867 350.908">
   <defs>
      <linearGradient id="b" x1="148.273" y1="350.615" x2="148.273" y2="333.624" gradientUnits="userSpaceOnUse">
         <stop offset="0" stop-color="#656565"/>
         <stop offset=".618" stop-color="#1b1b1b"/>
         <stop offset=".629" stop-color="#545454"/>
         <stop offset=".983" stop-color="#3e3e3e"/>
      </linearGradient>
      <linearGradient id="a" x1="148.273" y1="350.615" x2="148.273" y2="333.624" gradientUnits="userSpaceOnUse">
         <stop offset="0" stop-color="#fff"/>
         <stop offset="1"/>
      </linearGradient>
      <linearGradient id="c" x1="148.273" y1="333.624" x2="148.273" y2="350.615" xlink:href="#a"/>
      <linearGradient id="d" x1="362.84" y1="383.833" x2="362.84" y2="227.494" xlink:href="#b"/>
      <linearGradient id="e" x1="362.84" y1="383.833" x2="362.84" y2="227.494" xlink:href="#a"/>
      <linearGradient id="f" x1="362.84" y1="227.494" x2="362.84" y2="383.833" xlink:href="#a"/>
      <linearGradient id="g" x1="359.705" y1="267.934" x2="359.705" y2="65.342" xlink:href="#b"/>
      <linearGradient id="h" x1="359.705" y1="267.934" x2="359.705" y2="65.342" xlink:href="#a"/>
      <linearGradient id="i" x1="359.705" y1="65.342" x2="359.705" y2="267.934" xlink:href="#a"/>
   </defs>
   <title>marza_logo_chrome</title>
   <g style="isolation:isolate">
      <ellipse cx="148.273" cy="342.119" rx="147.979" ry="8.496" fill="url(#b)"/>
      <ellipse cx="148.273" cy="342.119" rx="147.979" ry="8.496" style="mix-blend-mode:screen" opacity=".51" fill="url(#a)"/>
      <ellipse cx="148.273" cy="342.119" rx="147.979" ry="8.496" style="mix-blend-mode:screen" opacity=".7" fill="url(#c)"/>
      <path d="M357.544 414.947c-28.413-.011-56.835-.394-85.226-1.549-19.014-.773-39.068-.637-57.743-4.748-1.1-.243-3.954-.515-4.622-1.716.23.414-.278.648.28.174a6.165 6.165 0 0 1 2.111-.873c5.066-1.63 10.775-1.964 16.023-2.5 11.535-1.185 23.126-1.835 34.706-2.39 56.561-2.709 113.4-2.707 169.989-.77 21.3.729 43.1 1.009 64.171 4.5 2.182.361 5.779.536 7.622 2.037.559.455.041.256.28-.174a1.889 1.889 0 0 1-1.011.684c-16.66 4.657-34.951 4.552-52.108 5.372-31.462 1.5-62.976 1.945-94.471 1.956-.005 0-.005.726 0 .726 29.974-.011 59.962-.425 89.909-1.747 12.716-.561 25.446-1.23 38.116-2.483 5.628-.557 11.744-.872 17.174-2.619 2.036-.655 3.364-1.4 1.38-2.834-2.878-2.077-9.016-2-12.313-2.411-11.728-1.459-23.563-2.13-35.36-2.741-59.645-3.088-119.661-3.045-179.334-.816-13.233.494-26.47 1.118-39.672 2.169-7.607.605-15.4 1.121-22.87 2.766-1.413.311-5.724.761-4.341 2.994 1.254 2.023 8.626 2.208 10.491 2.469 12.547 1.757 25.27 2.421 37.912 3.075 32.933 1.7 65.935 2.165 98.907 2.177.005-.003.006-.728 0-.728z" transform="translate(-209.271 -65.048)" fill="#fff" style="mix-blend-mode:screen" opacity=".49"/>
      <ellipse cx="148.273" cy="342.119" rx="147.979" ry="8.496" stroke="#717171" stroke-miterlimit="1" stroke-width=".588" fill="none"/>
      <path d="M77.062 280.888s69.167 46.692 150-1.455l47.167 39.352-62.536-156.34-27.964 42.174s-32.046 46.212-65.252 0l-26.2-36.466-59.369 150.632z" fill="url(#d)"/>
      <path d="M77.062 280.888s69.167 46.692 150-1.455l47.167 39.352-62.536-156.34-27.964 42.174s-32.046 46.212-65.252 0l-26.2-36.466-59.369 150.632z" style="mix-blend-mode:screen" opacity=".51" fill="url(#e)"/>
      <path d="M77.062 280.888s69.167 46.692 150-1.455l47.167 39.352-62.536-156.34-27.964 42.174s-32.046 46.212-65.252 0l-26.2-36.466-59.369 150.632z" style="mix-blend-mode:screen" opacity=".7" fill="url(#f)"/>
      <path d="M77.062 280.888s69.167 46.692 150-1.455l47.167 39.352-62.536-156.34-27.964 42.174s-32.046 46.212-65.252 0l-26.2-36.466-59.369 150.632z" stroke="#717171" stroke-miterlimit="1" stroke-width=".588" fill="none"/>
      <path d="M291.304 202.886l-53.437-124.934s-17.416-31.423-38.9 0l-48.151 70.417-49.626-70.417s-20.063-29.167-39.6 0l-49.908 124.934s-48.164-100.153 53.608-175.877c0 0 8.1-6.392 22.3-12.922 29.355-13.5 84.792-27.586 148.743 12.922.001 0 93.38 59.978 54.971 175.877z" fill="url(#g)"/>
      <path d="M291.304 202.886l-53.437-124.934s-17.416-31.423-38.9 0l-48.151 70.417-49.626-70.417s-20.063-29.167-39.6 0l-49.908 124.934s-48.164-100.153 53.608-175.877c0 0 8.1-6.392 22.3-12.922 29.355-13.5 84.792-27.586 148.743 12.922.001 0 93.38 59.978 54.971 175.877z" style="mix-blend-mode:screen" opacity=".51" fill="url(#h)"/>
      <path d="M291.304 202.886l-53.437-124.934s-17.416-31.423-38.9 0l-48.151 70.417-49.626-70.417s-20.063-29.167-39.6 0l-49.908 124.934s-48.164-100.153 53.608-175.877c0 0 8.1-6.392 22.3-12.922 29.355-13.5 84.792-27.586 148.743 12.922.001 0 93.38 59.978 54.971 175.877z" style="mix-blend-mode:screen" opacity=".7" fill="url(#i)"/>
      <path d="M291.304 202.886l-53.437-124.934s-17.416-31.423-38.9 0l-48.151 70.417-49.626-70.417s-20.063-29.167-39.6 0l-49.908 124.934s-48.164-100.153 53.608-175.877c0 0 8.1-6.392 22.3-12.922 29.355-13.5 84.792-27.586 148.743 12.922.001 0 93.38 59.978 54.971 175.877z" stroke="#717171" stroke-miterlimit="1" stroke-width=".588" fill="none"/>
   </g>
</svg>