<svg id="Layer_1" data-name="Layer 1" xmlns="http://www.w3.org/2000/svg" viewBox="0 0 301.279 351.321"><title>marza_logo_2</title><ellipse cx="148.479" cy="342.325" rx="147.979" ry="8.496" style="stroke:#000;stroke-miterlimit:10"/><path d="M286.333,345.936s69.167,46.692,150-1.455L483.5,383.833l-62.536-156.34L393,269.667s-32.046,46.212-65.252,0l-26.2-36.466L242.179,383.833Z" transform="translate(-209.065 -64.842)" style="fill:#c1272d;stroke:#c1272d;stroke-miterlimit:10"/><path d="M500.575,267.934L447.138,143s-17.416-31.423-38.9,0l-48.151,70.417L310.461,143s-20.063-29.167-39.6,0L220.953,267.934S172.789,167.781,274.561,92.057c0,0,8.1-6.392,22.3-12.922,29.355-13.5,84.792-27.586,148.743,12.922C445.605,92.057,538.984,152.035,500.575,267.934Z" transform="translate(-209.065 -64.842)" style="fill:#1b1464;stroke:#1b1464;stroke-miterlimit:10"/></svg>